<?xml version="1.0" encoding="UTF-8" standalone="no"?>
<svg
   xmlns:dc="http://purl.org/dc/elements/1.1/"
   xmlns:cc="http://creativecommons.org/ns#"
   xmlns:rdf="http://www.w3.org/1999/02/22-rdf-syntax-ns#"
   xmlns:svg="http://www.w3.org/2000/svg"
   xmlns="http://www.w3.org/2000/svg"
   xmlns:sodipodi="http://sodipodi.sourceforge.net/DTD/sodipodi-0.dtd"
   xmlns:inkscape="http://www.inkscape.org/namespaces/inkscape"
   viewBox="0 0 48 48"
   width="48"
   height="48"
   version="1.1"
   id="svg6"
   sodipodi:docname="penguin-mono.svg"
   inkscape:version="1.0.2 (e86c870, 2021-01-15)">
  <metadata
     id="metadata10">
    <rdf:RDF>
      <cc:Work
         rdf:about="">
        <dc:format>image/svg+xml</dc:format>
        <dc:type
           rdf:resource="http://purl.org/dc/dcmitype/StillImage" />
        <dc:title />
      </cc:Work>
    </rdf:RDF>
  </metadata>
  <sodipodi:namedview
     pagecolor="#505050"
     bordercolor="#ffffff"
     borderopacity="1"
     objecttolerance="10"
     gridtolerance="10"
     guidetolerance="10"
     inkscape:pageopacity="0"
     inkscape:pageshadow="2"
     inkscape:window-width="1590"
     inkscape:window-height="1079"
     id="namedview8"
     showgrid="false"
     inkscape:zoom="9.1317058"
     inkscape:cx="44.189636"
     inkscape:cy="22.294808"
     inkscape:window-x="162"
     inkscape:window-y="195"
     inkscape:window-maximized="0"
     inkscape:current-layer="svg6"
     inkscape:document-rotation="0" />
  <defs
     id="defs2" />
  <path
     style="fill:#ffffff;fill-opacity:1;stroke:none;stroke-width:0.99914px;stroke-linecap:butt;stroke-linejoin:miter;stroke-opacity:1"
     d="m 13.899186,9.3289317 9.339692,-3.1172618 10.117334,2.7186076 3.706397,15.0492575 -1.868565,12.816218 -6.38285,6.07512 -11.038187,0.196768 -5.509854,-5.525157 -2.4502744,-10.090375 z"
     id="path835"
     sodipodi:nodetypes="cccccccccc" />
  <path
     fill="#949494"
     d="m 8.5042334,32.552901 c 0.5009418,3.653784 3.0069216,7.114802 5.5551336,9.659281 -3.517609,0.819405 -2.742339,2.924291 0.214853,2.137983 0.09102,1.483714 0.758072,1.466057 2.082332,1.146697 0.453064,2.483161 3.83197,-0.42566 3.83197,-0.42566 2.397023,-0.207072 5.313179,-0.249259 7.927541,-0.107996 2.267744,1.688395 2.579501,0.443484 2.631405,-0.537009 1.090752,1.049766 3.16354,1.216109 2.857438,-0.593506 3.013689,0.736826 2.55244,-1.217823 0.01037,-2.145527 2.548166,-2.544384 4.404915,-5.311665 4.905793,-8.965449 1.294847,0.459356 8.145673,3.260045 8.978931,1.09301 C 45.239586,30.337928 40.71717,27.104416 39.001844,23.364095 37.297816,19.192822 37.656809,14.575884 36.185683,10.424644 33.470721,4.3141489 30.503999,1.5 23.837625,1.5 17.171251,1.5 14.723329,3.5163055 12.455983,8.9572661 10.719899,13.123354 10.969093,17.311559 9.9390359,21.291645 6.8498706,21.042102 -0.93453558,12.298923 0.7309308,19.324435 1.5642057,21.491467 7.2094194,33.012257 8.5042334,32.552901 M 18.630682,8.3216186 c 2.489658,-0.2491398 3.006634,2.1204324 5.002073,2.1732114 1.005034,0.02659 2.11433,-1.3561989 3.00038,-1.7833905 2.143114,-1.0332929 4.357562,-0.6238909 5.898727,1.1067675 3.052793,3.428113 1.096544,7.253956 1.448152,11.133159 0.181336,1.999842 1.49025,3.943233 1.665023,6.084803 0.591075,7.239606 -2.544302,14.793196 -10.043282,15.605378 C 17.736447,43.493516 11.586728,37.982273 11.32335,29.72248 11.22434,26.619606 12.736716,24.244754 13.017065,21.39098 13.503502,16.438044 10.958242,9.0893901 18.630682,8.3216186"
     id="path4"
     sodipodi:nodetypes="cccccccccccccssccccscccccccc" />
  <path
     sodipodi:type="star"
     style="fill:#9c6c6c;fill-opacity:1;stroke:none;stroke-width:0.1;paint-order:fill markers stroke"
     id="path875"
     sodipodi:sides="5"
     sodipodi:cx="23.230335"
     sodipodi:cy="18.356125"
     sodipodi:r1="2.8135731"
     sodipodi:r2="1.8689198"
     sodipodi:arg1="-2.0114001"
     sodipodi:arg2="-1.3830816"
     inkscape:flatsided="true"
     inkscape:rounded="0"
     inkscape:randomized="0"
     inkscape:transform-center-x="0.21651807"
     inkscape:transform-center-y="-0.0035831035"
     d="m 22.030387,15.811264 3.24945,0.617237 0.417109,3.281148 -2.991664,1.410624 -2.266058,-2.409334 z"
     transform="matrix(0.99690497,0,0,1.0013819,0.50000002,1.5)" />
  <g
     id="g945"
     transform="matrix(0.99690497,0,0,1.0013819,-0.29297135,1.3666087)">
    <path
       style="fill:none;stroke:#000000;stroke-width:1px;stroke-linecap:butt;stroke-linejoin:miter;stroke-opacity:1"
       d="m 16.289598,16.573985 c 0.909369,-0.184103 1.826999,-0.418959 2.760234,-0.418959"
       id="path901" />
    <path
       style="fill:none;stroke:#000000;stroke-width:1px;stroke-linecap:butt;stroke-linejoin:miter;stroke-opacity:1"
       d="m 28.620119,15.835188 c 0.674149,0.139823 1.857163,-0.323343 2.380241,0.199735"
       id="path907" />
  </g>
</svg>
