<?xml version="1.0" encoding="UTF-8" standalone="no"?>
<svg xmlns="http://www.w3.org/2000/svg" viewBox="0 0 48 48" width="48" height="48">
  <defs/>
  <path fill="#999" d="M6.4121059 32.343978c.5024968 3.648742 2.7108416 6.994318 5.2669641 9.535285-3.925355 0-3.7473409 2.991463.09405 2.991463v.09348c-1.559962.376365-1.647339 2.48516.000637 2.828521 4.171249.869209 8.175366-1.254732 12.132173-1.595195 2.404465-.206786 5.936341 1.416267 8.55882 1.557335 1.143026.06151 3.19639.412448 4.21978-.121061 1.306395-.681023.820893-2.361103-.457661-2.6696v-.09348c3.841403 0 4.019446-2.991463.09405-2.991463 2.556077-2.540873 4.764535-5.886543 5.266968-9.535285 1.298869.458722 5.517617 2.223404 6.353462.05936.324208-.83957-.781199-2.059152-1.226069-2.676889-1.528077-2.121974-3.164502-4.199731-4.164759-6.637305-1.709318-4.165517-1.592596-8.568201-3.068289-12.713711C37.212756 3.9997299 30.687078 0 24.000007 0 17.312936 0 10.78726 3.9997299 8.5177448 10.375433c-1.4756533 4.14551-1.3589431 8.548194-3.0682332 12.713711-1.0002533 2.437574-2.6367467 4.515331-4.1648439 6.637305-.44481214.617737-1.55027023 1.837319-1.2260029 2.676891.83586184 2.164042 5.0546074.39936 6.3534411-.059362M18.35683 6.9528729c2.497388-.2487961 3.641543 2.110046 5.643177 2.1627519 1.008154.02655 2.120894-1.354328 3.009695-1.7809293 2.149768-1.0318673 5.273737-.1765617 6.819686 1.5517086 3.062271 3.4233819 1.099949 7.2439459 1.452648 11.1177949.181899 1.997082 1.494877 3.937792 1.670193 6.076406.59291 7.229616-3.454848 13.363325-10.977109 14.174386-7.889727.850793-14.684113-3.682395-14.948308-11.93079-.09932-3.098592 1.417754-5.470167 1.698973-8.320002.487947-4.946101-2.065215-12.2846146 5.631045-13.0513261m1.504847 7.0523241c-2.564918.172196-2.264513 4.104098.282159 3.906101 2.508863-.195006 2.224823-4.074464-.282159-3.906101m7.994502.0018c-2.510368.207345-2.221813 4.092225.282158 3.904511 2.557395-.191641 2.272321-4.115597-.282158-3.904511m-7.806396 6.090718c1.383896 4.493642 6.516554 4.493642 7.900449 0l-3.950225-1.652783z"/>
</svg>
